Coordinates
version=1
nRows=54
nColumns=12
inDegrees=yes

Units are S.I. units (second, meters, Newtons, ...)
Angles are in degrees

endheader
time	SC_y	SC_z	SC_x	AC_y	AC_z	AC_x	GH_y	GH_z	GH_yy	EL_x	PS_y
       0.0              -40.42         0.5252          67.86          38.69          3.956         -15.55         -154.9          -18.9          70.44          63.03          80.12
   0.02325              -40.42         0.5247          67.85          38.68          3.955         -15.55         -154.9          -18.9          70.45          63.04          80.13
   0.04651              -40.42         0.5241          67.85          38.68          3.954         -15.54         -154.8         -18.89          70.46          63.05          80.14
   0.06976              -40.42         0.5235          67.84          38.68          3.953         -15.54         -154.8         -18.89          70.47          63.06          80.15
   0.09302              -40.42         0.5229          67.84          38.68          3.951         -15.54         -154.8         -18.89          70.48          63.07          80.16
    0.1163              -40.42         0.5223          67.83          38.68           3.95         -15.53         -154.7         -18.89          70.49          63.08          80.17
    0.1395              -40.42         0.5216          67.83          38.68          3.948         -15.53         -154.7         -18.88           70.5           63.1          80.19
    0.1628              -40.41         0.5208          67.82          38.68          3.946         -15.52         -154.6         -18.88          70.51          63.11           80.2
     0.186              -40.41         0.5201          67.81          38.68          3.944         -15.52         -154.5         -18.88          70.52          63.12          80.22
    0.2093              -40.41         0.5192          67.81          38.67          3.943         -15.51         -154.5         -18.88          70.54          63.14          80.23
    0.2325              -40.41         0.5183           67.8          38.67           3.94         -15.51         -154.4         -18.87          70.55          63.16          80.25
    0.2558              -40.41         0.5173          67.79          38.67          3.938          -15.5         -154.3         -18.87          70.57          63.17          80.27
    0.2791              -40.41         0.5162          67.78          38.67          3.936          -15.5         -154.3         -18.86          70.59          63.19          80.29
    0.3023              -40.41         0.5151          67.77          38.66          3.933         -15.49         -154.2         -18.86          70.61          63.21          80.31
    0.3256              -40.41         0.5139          67.76          38.66           3.93         -15.48         -154.1         -18.86          70.63          63.24          80.34
    0.3488              -40.41         0.5125          67.75          38.66          3.927         -15.47         -154.0         -18.85          70.65          63.26          80.36
    0.3721               -40.4          0.511          67.74          38.66          3.924         -15.46         -153.9         -18.85          70.67          63.29          80.39
    0.3953               -40.4         0.5095          67.73          38.65           3.92         -15.45         -153.8         -18.84           70.7          63.32          80.42
    0.4186               -40.4         0.5077          67.71          38.65          3.916         -15.44         -153.6         -18.83          70.73          63.35          80.45
    0.4418               -40.4         0.5058           67.7          38.65          3.912         -15.43         -153.5         -18.83          70.76          63.38          80.49
    0.4651               -40.4         0.5037          67.68          38.64          3.907         -15.42         -153.3         -18.82           70.8          63.42          80.53
    0.4883              -40.39         0.5014          67.66          38.64          3.902         -15.41         -153.2         -18.81          70.83          63.46          80.57
    0.5116              -40.39         0.4989          67.64          38.63          3.896         -15.39         -153.0          -18.8          70.88          63.51          80.62
    0.5348              -40.39         0.4961          67.61          38.63          3.889         -15.37         -152.8         -18.79          70.92          63.56          80.68
    0.5581              -40.39         0.4929          67.59          38.62          3.882         -15.36         -152.5         -18.78          70.97          63.62          80.74
    0.5814              -40.38         0.4894          67.56          38.61          3.874         -15.33         -152.3         -18.77          71.03          63.68           80.8
    0.6046              -40.38         0.4855          67.53           38.6          3.865         -15.31         -152.0         -18.75           71.1          63.75          80.88
    0.6279              -40.37         0.4811          67.49          38.59          3.855         -15.28         -151.6         -18.74          71.17          63.84          80.96
    0.6511              -40.37         0.4761          67.45          38.58          3.844         -15.25         -151.3         -18.72          71.25          63.93          81.06
    0.6744              -40.36         0.4705           67.4          38.57          3.831         -15.22         -150.8          -18.7          71.35          64.03          81.17
    0.6976              -40.35          0.464          67.35          38.56          3.816         -15.18         -150.4         -18.67          71.45          64.15          81.29
    0.7209              -40.35         0.4566          67.29          38.54          3.799         -15.14         -149.8         -18.65          71.58          64.28          81.43
    0.7441              -40.34         0.4481          67.22          38.53          3.779         -15.09         -149.2         -18.62          71.72          64.44           81.6
    0.7674              -40.33         0.4382          67.13          38.51          3.756         -15.03         -148.4         -18.58          71.88          64.62          81.79
    0.7906              -40.31         0.4265          67.04          38.48           3.73         -14.96         -147.6         -18.54          72.08          64.83          82.01
    0.8139               -40.3         0.4129          66.93          38.45          3.698         -14.87         -146.5         -18.49           72.3          65.08          82.27
    0.8372              -40.28         0.3966          66.79          38.42          3.661         -14.78         -145.3         -18.43          72.57          65.38          82.58
    0.8604              -40.26         0.3771          66.63          38.38          3.616         -14.66         -143.9         -18.36           72.9          65.73          82.96
    0.8837              -40.24         0.3535          66.43          38.33          3.562         -14.52         -142.1         -18.27          73.29          66.16          83.41
    0.9069              -40.21         0.3246          66.19          38.27          3.496         -14.34         -139.9         -18.17          73.77          66.69          83.96
    0.9302              -40.17         0.2891           65.9           38.2          3.414         -14.13         -137.3         -18.04          74.36          67.34          84.64
    0.9534              -40.12         0.2447          65.53          38.11          3.312         -13.86         -134.0         -17.87          75.09          68.15          85.49
    0.9767              -40.06         0.1888          65.07          37.99          3.184         -13.53         -129.8         -17.67          76.02          69.17          86.56
    0.9999              -39.98         0.1177          64.48          37.84           3.02          -13.1         -124.5         -17.41           77.2          70.47          87.92
     1.023              -39.89         0.0268          63.73          37.65          2.811         -12.55         -117.7         -17.08          78.71          72.12          89.66
     1.046              -39.76        -0.0899          62.76          37.41          2.543         -11.85         -108.9         -16.66          80.65          74.25           91.9
      1.07               -39.6         -0.239          61.53          37.11          2.201         -10.96         -97.79         -16.11          83.12          76.97          94.76
     1.093               -39.4        -0.4264          59.97          36.72           1.77          -9.83         -83.78         -15.43          86.23           80.4          98.35
     1.116              -39.16        -0.6548          58.08          36.24          1.246         -8.457          -66.7          -14.6          90.02          84.56          102.7
     1.139              -38.87        -0.9196          55.89           35.7         0.6373         -6.866          -46.9         -13.63          94.41          89.39          107.8
     1.163              -38.57         -1.206          53.52           35.1       -0.02132         -5.143         -25.47         -12.59          99.17          94.63          113.3
     1.186              -38.26         -1.493          51.14          34.51        -0.6799          -3.42          -4.03         -11.54          103.9          99.86          118.8
     1.209              -37.98         -1.758          48.95          33.96         -1.288         -1.829          15.77         -10.58          108.3          104.7          123.8
     1.232              -37.73         -1.986          47.06          33.49         -1.813        -0.4557          32.85         -9.744          112.1          108.9          128.2
